# xmcd
#
# Track frame offsets:
#	150
#	11323
#	22263
#	35409
#	50136
#	61219
#	76604
#	88273
#	105740
#	120306
#	134384
#	151624
#
# Disc length: 2176 seconds
# Revision: 0
# Processed by: cddbd v1.5.2PL0 Copyright (c) Steve Scherf et al.
# Submitted via: dBpowerAMP V12.0
#
DISCID=8c087e0c
DTITLE=The Larry Stephenson Band - Weep Little Willow
DYEAR=2016
DGENRE=Country
TTITLE0=Yesterday's Gone
TTITLE1=It Almost Feels Like Love
TTITLE2=Sweet Little Darling (Don't You Cry)
TTITLE3=Let Those Brown Eyes Smile At Me
TTITLE4=Nail My Shoes To The Floor
TTITLE5=Weep Little Willow, Weep
TTITLE6=Before I Met You
TTITLE7=Kentucky Waltz
TTITLE8=Ruby's Purse
TTITLE9=Free Me From This Old Chain Gang
TTITLE10=Best Laid Plans
TTITLE11=Midnight Train
EXTD=
EXTT0=
EXTT1=
EXTT2=
EXTT3=
EXTT4=
EXTT5=
EXTT6=
EXTT7=
EXTT8=
EXTT9=
EXTT10=
EXTT11=
PLAYORDER=
